<svg xmlns="http://www.w3.org/2000/svg" viewBox="0 0 900 520">
  <defs>
    <linearGradient id="mqbg" x1="0%" y1="0%" x2="100%" y2="100%">
      <stop offset="0%" style="stop-color:#0f172a"/>
      <stop offset="100%" style="stop-color:#1e1b4b"/>
    </linearGradient>
  </defs>
  <rect width="900" height="520" rx="12" fill="url(#mqbg)"/>

  <text x="450" y="28" font-family="Segoe UI, Arial, sans-serif" font-size="14" fill="#a78bfa" text-anchor="middle" font-weight="700" letter-spacing="2">MERGE QUALITY PIPELINE</text>

  <!-- ====== STANDARD ROW ====== -->
  <!-- Label badge -->
  <rect x="30" y="56" width="100" height="94" rx="10" fill="#1e293b" stroke="#64748b" stroke-width="1.5"/>
  <text x="80" y="82" font-family="Segoe UI, Arial, sans-serif" font-size="13" fill="#94a3b8" text-anchor="middle" font-weight="700">standard</text>
  <text x="80" y="98" font-family="Segoe UI, Arial, sans-serif" font-size="9" fill="#64748b" text-anchor="middle">(default)</text>
  <text x="80" y="138" font-family="Segoe UI, Arial, sans-serif" font-size="9" fill="#64748b" text-anchor="middle">Baseline</text>

  <!-- Sparsify (optional) -->
  <rect x="152" y="56" width="130" height="94" rx="10" fill="#1e293b" stroke="#334155" stroke-width="1" stroke-dasharray="5,3"/>
  <text x="217" y="80" font-family="Segoe UI, Arial, sans-serif" font-size="11" fill="#94a3b8" text-anchor="middle" font-weight="600">Sparsify</text>
  <text x="217" y="96" font-family="Segoe UI, Arial, sans-serif" font-size="9" fill="#64748b" text-anchor="middle">(DARE / DELLA)</text>
  <text x="217" y="116" font-family="Segoe UI, Arial, sans-serif" font-size="9" fill="#64748b" text-anchor="middle">optional</text>
  <text x="217" y="132" font-family="Segoe UI, Arial, sans-serif" font-size="9" fill="#64748b" text-anchor="middle">preprocessing</text>

  <!-- Arrow -->
  <line x1="282" y1="103" x2="304" y2="103" stroke="#94a3b8" stroke-width="1.5"/>
  <polygon points="304,99 312,103 304,107" fill="#94a3b8"/>

  <!-- Element-wise Merge -->
  <rect x="316" y="56" width="170" height="94" rx="10" fill="#1e293b" stroke="#64748b" stroke-width="1.5"/>
  <text x="401" y="80" font-family="Segoe UI, Arial, sans-serif" font-size="11" fill="#94a3b8" text-anchor="middle" font-weight="600">Element-wise</text>
  <text x="401" y="96" font-family="Segoe UI, Arial, sans-serif" font-size="11" fill="#94a3b8" text-anchor="middle" font-weight="600">Sign Vote + Merge</text>
  <line x1="332" y1="108" x2="470" y2="108" stroke="#334155" stroke-width="0.5"/>
  <text x="401" y="124" font-family="Segoe UI, Arial, sans-serif" font-size="9" fill="#64748b" text-anchor="middle">Each weight position</text>
  <text x="401" y="138" font-family="Segoe UI, Arial, sans-serif" font-size="9" fill="#64748b" text-anchor="middle">votes independently</text>

  <!-- Arrow to result -->
  <line x1="486" y1="103" x2="508" y2="103" stroke="#94a3b8" stroke-width="1.5"/>
  <polygon points="508,99 516,103 508,107" fill="#94a3b8"/>

  <!-- Result -->
  <rect x="520" y="82" width="70" height="42" rx="8" fill="#1e293b" stroke="#64748b" stroke-width="1"/>
  <text x="555" y="108" font-family="Segoe UI, Arial, sans-serif" font-size="10" fill="#94a3b8" text-anchor="middle">Result</text>

  <!-- ====== SEPARATOR ====== -->
  <line x1="30" y1="168" x2="870" y2="168" stroke="#334155" stroke-width="0.5" stroke-dasharray="4,4"/>

  <!-- ====== ENHANCED ROW ====== -->
  <!-- Label badge -->
  <rect x="30" y="186" width="100" height="94" rx="10" fill="#1e293b" stroke="#38bdf8" stroke-width="1.5"/>
  <text x="80" y="214" font-family="Segoe UI, Arial, sans-serif" font-size="13" fill="#38bdf8" text-anchor="middle" font-weight="700">enhanced</text>
  <text x="80" y="250" font-family="Segoe UI, Arial, sans-serif" font-size="9" fill="#38bdf8" text-anchor="middle">No extra</text>
  <text x="80" y="264" font-family="Segoe UI, Arial, sans-serif" font-size="9" fill="#38bdf8" text-anchor="middle">VRAM</text>

  <!-- Sparsify (optional) -->
  <rect x="152" y="186" width="120" height="94" rx="10" fill="#1e293b" stroke="#334155" stroke-width="1" stroke-dasharray="5,3"/>
  <text x="212" y="210" font-family="Segoe UI, Arial, sans-serif" font-size="11" fill="#94a3b8" text-anchor="middle" font-weight="600">Sparsify</text>
  <text x="212" y="226" font-family="Segoe UI, Arial, sans-serif" font-size="9" fill="#64748b" text-anchor="middle">(optional)</text>

  <!-- Arrow -->
  <line x1="272" y1="233" x2="290" y2="233" stroke="#94a3b8" stroke-width="1.5"/>
  <polygon points="290,229 298,233 290,237" fill="#94a3b8"/>

  <!-- TALL-masks (NEW) -->
  <rect x="302" y="186" width="150" height="94" rx="10" fill="#1e293b" stroke="#38bdf8" stroke-width="2"/>
  <rect x="302" y="186" width="150" height="24" rx="10" fill="#38bdf8" opacity="0.1"/>
  <rect x="302" y="200" width="150" height="10" fill="#1e293b"/>
  <text x="377" y="200" font-family="Segoe UI, Arial, sans-serif" font-size="11" fill="#38bdf8" text-anchor="middle" font-weight="700">TALL-masks</text>
  <text x="377" y="224" font-family="Segoe UI, Arial, sans-serif" font-size="9" fill="#ccd6f6" text-anchor="middle">Separate selfish</text>
  <text x="377" y="238" font-family="Segoe UI, Arial, sans-serif" font-size="9" fill="#ccd6f6" text-anchor="middle">weights (unique to</text>
  <text x="377" y="252" font-family="Segoe UI, Arial, sans-serif" font-size="9" fill="#ccd6f6" text-anchor="middle">one LoRA) from</text>
  <text x="377" y="266" font-family="Segoe UI, Arial, sans-serif" font-size="9" fill="#38bdf8" text-anchor="middle">consensus merge</text>

  <!-- Arrow -->
  <line x1="452" y1="233" x2="470" y2="233" stroke="#94a3b8" stroke-width="1.5"/>
  <polygon points="470,229 478,233 470,237" fill="#94a3b8"/>

  <!-- Column-wise Merge (NEW) -->
  <rect x="482" y="186" width="155" height="94" rx="10" fill="#1e293b" stroke="#38bdf8" stroke-width="2"/>
  <rect x="482" y="186" width="155" height="24" rx="10" fill="#38bdf8" opacity="0.1"/>
  <rect x="482" y="200" width="155" height="10" fill="#1e293b"/>
  <text x="559" y="200" font-family="Segoe UI, Arial, sans-serif" font-size="11" fill="#38bdf8" text-anchor="middle" font-weight="700">Column-wise</text>
  <text x="559" y="224" font-family="Segoe UI, Arial, sans-serif" font-size="9" fill="#ccd6f6" text-anchor="middle">Rows vote as units</text>
  <text x="559" y="238" font-family="Segoe UI, Arial, sans-serif" font-size="9" fill="#ccd6f6" text-anchor="middle">Preserves neuron</text>
  <text x="559" y="252" font-family="Segoe UI, Arial, sans-serif" font-size="9" fill="#ccd6f6" text-anchor="middle">structural coherence</text>
  <text x="559" y="266" font-family="Segoe UI, Arial, sans-serif" font-size="9" fill="#38bdf8" text-anchor="middle">+ add selfish back</text>

  <!-- Arrow to result -->
  <line x1="637" y1="233" x2="655" y2="233" stroke="#94a3b8" stroke-width="1.5"/>
  <polygon points="655,229 663,233 655,237" fill="#94a3b8"/>

  <!-- Result -->
  <rect x="667" y="212" width="70" height="42" rx="8" fill="#1e293b" stroke="#38bdf8" stroke-width="1"/>
  <text x="702" y="238" font-family="Segoe UI, Arial, sans-serif" font-size="10" fill="#38bdf8" text-anchor="middle">Result</text>

  <!-- ====== SEPARATOR ====== -->
  <line x1="30" y1="298" x2="870" y2="298" stroke="#334155" stroke-width="0.5" stroke-dasharray="4,4"/>

  <!-- ====== MAXIMUM ROW ====== -->
  <!-- Label badge -->
  <rect x="30" y="316" width="100" height="94" rx="10" fill="#1e293b" stroke="#f59e0b" stroke-width="1.5"/>
  <text x="80" y="344" font-family="Segoe UI, Arial, sans-serif" font-size="13" fill="#f59e0b" text-anchor="middle" font-weight="700">maximum</text>
  <text x="80" y="380" font-family="Segoe UI, Arial, sans-serif" font-size="9" fill="#f59e0b" text-anchor="middle">More VRAM</text>
  <text x="80" y="394" font-family="Segoe UI, Arial, sans-serif" font-size="9" fill="#f59e0b" text-anchor="middle">(SVD)</text>

  <!-- Sparsify (optional) -->
  <rect x="152" y="316" width="105" height="94" rx="10" fill="#1e293b" stroke="#334155" stroke-width="1" stroke-dasharray="5,3"/>
  <text x="204" y="340" font-family="Segoe UI, Arial, sans-serif" font-size="10" fill="#94a3b8" text-anchor="middle" font-weight="600">Sparsify</text>
  <text x="204" y="356" font-family="Segoe UI, Arial, sans-serif" font-size="9" fill="#64748b" text-anchor="middle">(optional)</text>

  <!-- Arrow -->
  <line x1="257" y1="363" x2="273" y2="363" stroke="#94a3b8" stroke-width="1.5"/>
  <polygon points="273,359 281,363 273,367" fill="#94a3b8"/>

  <!-- KnOTS SVD Align (NEW - MAXIMUM ONLY) -->
  <rect x="285" y="316" width="145" height="94" rx="10" fill="#1e293b" stroke="#f59e0b" stroke-width="2"/>
  <rect x="285" y="316" width="145" height="24" rx="10" fill="#f59e0b" opacity="0.12"/>
  <rect x="285" y="330" width="145" height="10" fill="#1e293b"/>
  <text x="357" y="330" font-family="Segoe UI, Arial, sans-serif" font-size="11" fill="#f59e0b" text-anchor="middle" font-weight="700">KnOTS Align</text>
  <text x="357" y="354" font-family="Segoe UI, Arial, sans-serif" font-size="9" fill="#ccd6f6" text-anchor="middle">Truncated SVD</text>
  <text x="357" y="368" font-family="Segoe UI, Arial, sans-serif" font-size="9" fill="#ccd6f6" text-anchor="middle">projects diffs into</text>
  <text x="357" y="382" font-family="Segoe UI, Arial, sans-serif" font-size="9" fill="#ccd6f6" text-anchor="middle">shared basis space</text>
  <text x="357" y="396" font-family="Segoe UI, Arial, sans-serif" font-size="9" fill="#f59e0b" text-anchor="middle">OOM → CPU fallback</text>

  <!-- Arrow -->
  <line x1="430" y1="363" x2="446" y2="363" stroke="#94a3b8" stroke-width="1.5"/>
  <polygon points="446,359 454,363 446,367" fill="#94a3b8"/>

  <!-- TALL-masks -->
  <rect x="458" y="316" width="120" height="94" rx="10" fill="#1e293b" stroke="#38bdf8" stroke-width="2"/>
  <rect x="458" y="316" width="120" height="24" rx="10" fill="#38bdf8" opacity="0.1"/>
  <rect x="458" y="330" width="120" height="10" fill="#1e293b"/>
  <text x="518" y="330" font-family="Segoe UI, Arial, sans-serif" font-size="11" fill="#38bdf8" text-anchor="middle" font-weight="700">TALL-masks</text>
  <text x="518" y="354" font-family="Segoe UI, Arial, sans-serif" font-size="9" fill="#ccd6f6" text-anchor="middle">Protect selfish</text>
  <text x="518" y="368" font-family="Segoe UI, Arial, sans-serif" font-size="9" fill="#ccd6f6" text-anchor="middle">weights from</text>
  <text x="518" y="382" font-family="Segoe UI, Arial, sans-serif" font-size="9" fill="#38bdf8" text-anchor="middle">merge averaging</text>

  <!-- Arrow -->
  <line x1="578" y1="363" x2="594" y2="363" stroke="#94a3b8" stroke-width="1.5"/>
  <polygon points="594,359 602,363 594,367" fill="#94a3b8"/>

  <!-- Column-wise Merge -->
  <rect x="606" y="316" width="130" height="94" rx="10" fill="#1e293b" stroke="#38bdf8" stroke-width="2"/>
  <rect x="606" y="316" width="130" height="24" rx="10" fill="#38bdf8" opacity="0.1"/>
  <rect x="606" y="330" width="130" height="10" fill="#1e293b"/>
  <text x="671" y="330" font-family="Segoe UI, Arial, sans-serif" font-size="11" fill="#38bdf8" text-anchor="middle" font-weight="700">Column-wise</text>
  <text x="671" y="354" font-family="Segoe UI, Arial, sans-serif" font-size="9" fill="#ccd6f6" text-anchor="middle">Structural sign</text>
  <text x="671" y="368" font-family="Segoe UI, Arial, sans-serif" font-size="9" fill="#ccd6f6" text-anchor="middle">vote + disjoint</text>
  <text x="671" y="382" font-family="Segoe UI, Arial, sans-serif" font-size="9" fill="#38bdf8" text-anchor="middle">merge by row</text>

  <!-- Arrow to result -->
  <line x1="736" y1="363" x2="752" y2="363" stroke="#94a3b8" stroke-width="1.5"/>
  <polygon points="752,359 760,363 752,367" fill="#94a3b8"/>

  <!-- Result -->
  <rect x="764" y="342" width="70" height="42" rx="8" fill="#1e293b" stroke="#f59e0b" stroke-width="1"/>
  <text x="799" y="368" font-family="Segoe UI, Arial, sans-serif" font-size="10" fill="#f59e0b" text-anchor="middle">Result</text>

  <!-- ====== BOTTOM SUMMARY ====== -->
  <rect x="30" y="428" width="840" height="76" rx="10" fill="#1e293b" stroke="#334155" stroke-width="1"/>
  <text x="450" y="448" font-family="Segoe UI, Arial, sans-serif" font-size="10" fill="#94a3b8" text-anchor="middle">
    <tspan fill="#94a3b8" font-weight="600">standard:</tspan> current behavior — fast, no overhead
    <tspan dx="20" fill="#38bdf8" font-weight="600">enhanced:</tspan> +TALL-masks +column-wise — minimal extra compute
    <tspan dx="20" fill="#f59e0b" font-weight="600">maximum:</tspan> +KnOTS SVD — best quality
  </text>
  <text x="450" y="468" font-family="Segoe UI, Arial, sans-serif" font-size="10" fill="#94a3b8" text-anchor="middle">
    <tspan fill="#64ffda" font-weight="600">Best combination:</tspan> maximum + della_conflict (or dare_conflict) for full pipeline
  </text>
  <text x="450" y="488" font-family="Segoe UI, Arial, sans-serif" font-size="10" fill="#94a3b8" text-anchor="middle">
    <tspan fill="#64748b">Works with all merge modes (TIES, weighted_average, SLERP, etc.) and all architectures</tspan>
  </text>
  <text x="450" y="498" font-family="Segoe UI, Arial, sans-serif" font-size="9" fill="#64748b" text-anchor="middle">Single-LoRA prefixes: all enhancements short-circuit (zero overhead)</text>
</svg>
